<?xml version="1.0" encoding="utf-8"?>
<!-- Generator: Adobe Illustrator 12.0.0, SVG Export Plug-In . SVG Version: 6.00 Build 51448)  -->
<!DOCTYPE svg PUBLIC "-//W3C//DTD SVG 1.1//EN" "http://www.w3.org/Graphics/SVG/1.1/DTD/svg11.dtd" [
	<!ENTITY ns_svg "http://www.w3.org/2000/svg">
	<!ENTITY ns_xlink "http://www.w3.org/1999/xlink">
]>
<svg  version="1.1" id="Layer_1" xmlns="&ns_svg;" xmlns:xlink="&ns_xlink;" width="545.333" height="328"
	 viewBox="0 0 545.333 328" overflow="visible" enable-background="new 0 0 545.333 328" xml:space="preserve">
<g>
	<rect x="20" y="22.863" fill="none" width="505.334" height="282.284"/>
	<g>
		<rect x="20" y="22.854" fill="none" width="505.334" height="282.285"/>
		<g>
			<rect x="20" y="22.854" fill="none" width="505.334" height="282.285"/>
			<path fill-rule="evenodd" clip-rule="evenodd" fill="#988B7E" d="M69.019,217.393h0.288h0.147l15.527,44.529h-31.62
				L69.019,217.393z M20,303.104h18.708l9.716-27.406h41.333l9.726,27.406h19.427L79.036,199.541H59.748L20,303.104z"/>
			<path fill-rule="evenodd" clip-rule="evenodd" fill="#988B7E" d="M118.027,279.02c0.283,17.707,14.353,26.127,33.206,26.127
				c15.528,0,33.509-6.537,33.509-24.387c0-14.779-12.178-19.131-24.22-21.893c-12.185-2.752-24.37-3.916-24.37-12.043
				c0-6.52,8.85-7.674,13.642-7.674c7.242,0,13.771,2.168,15.228,10.01h17.251c-2.021-16.688-15.955-23.074-31.323-23.074
				c-13.642,0-31.337,5.072-31.337,21.467c0,15.23,11.904,19.582,24.081,22.193c12.047,2.754,24.081,3.775,24.516,12.469
				c0.439,8.563-10.444,9.867-16.674,9.867c-8.854,0-16.102-3.48-16.976-13.063H118.027z"/>
			<path fill-rule="evenodd" clip-rule="evenodd" fill="#988B7E" d="M182.536,240.439h12.479v44.244
				c0.284,12.471,3.481,19.148,20.737,19.148c3.628,0,7.104-0.586,10.741-0.879v-12.754c-2.323,0.578-4.645,0.578-6.958,0.578
				c-7.407,0-7.988-3.48-7.988-10.285v-40.053h14.946v-12.326h-14.946v-22.471h-16.532v22.471h-12.479V240.439z"/>
			<path fill-rule="evenodd" clip-rule="evenodd" fill="#988B7E" d="M297.623,269.896c2.753-22.486-11.751-43.811-35.396-43.811
				c-22.332,0-36.25,18.277-36.25,39.602c0,23.064,13.189,39.459,36.693,39.459c16.39,0,30.315-9.146,33.932-25.541h-15.658
				c-2.904,8.268-8.699,12.477-18.273,12.477c-13.788,0-20.164-10.436-20.164-22.186H297.623z M242.506,259.01
				c0.439-11.164,8.272-19.859,19.721-19.859c11.173,0,18.272,9.414,18.859,19.859H242.506z"/>
			<path fill-rule="evenodd" clip-rule="evenodd" fill="#988B7E" d="M305.874,303.104h16.545v-35.676
				c0-16.535,8.988-25.674,20.302-25.674c2.318,0,4.787,0.436,7.105,0.729v-15.961c-1.439-0.15-2.469-0.436-6.227-0.436
				c-10.158,0-20.025,8.553-21.917,16.547h-0.285v-14.52h-15.523V303.104z"/>
			<rect x="354.412" y="228.113" fill-rule="evenodd" clip-rule="evenodd" fill="#988B7E" width="16.527" height="74.99"/>
			<path fill-rule="evenodd" clip-rule="evenodd" fill="#988B7E" d="M380.471,279.02c0.286,17.707,14.345,26.127,33.208,26.127
				c15.516,0,33.509-6.537,33.509-24.387c0-14.779-12.195-19.131-24.22-21.893c-12.185-2.752-24.369-3.916-24.369-12.043
				c0-6.52,8.836-7.674,13.624-7.674c7.264,0,13.782,2.168,15.231,10.01h17.271c-2.032-16.688-15.958-23.074-31.348-23.074
				c-13.625,0-31.325,5.072-31.325,21.467c0,15.23,11.909,19.582,24.076,22.193c12.044,2.754,24.078,3.775,24.521,12.469
				c0.435,8.563-10.444,9.867-16.687,9.867c-8.854,0-16.085-3.48-16.972-13.063H380.471z"/>
			<polygon fill-rule="evenodd" clip-rule="evenodd" fill="#988B7E" points="455.856,303.104 472.385,303.104 472.385,276.275 
				482.252,266.709 505.173,303.104 525.333,303.104 493.86,255.68 522.573,228.113 502.27,228.113 472.385,258.441 
				472.385,199.541 455.856,199.541 			"/>
			<polygon fill-rule="evenodd" clip-rule="evenodd" fill="#EE9223" points="204.554,56.739 181.863,56.739 182.737,89.536 
				155.208,71.819 143.785,90.992 172.477,107.395 143.785,123.805 155.208,142.978 182.737,125.989 181.863,158.075 
				204.554,158.075 203.679,125.989 231.058,142.978 242.627,123.805 213.781,107.395 242.627,90.992 231.058,71.819 
				203.679,89.536 			"/>
			<path fill-rule="evenodd" clip-rule="evenodd" fill="#EE9223" d="M282.776,54.287c-6.54-10.669-15.615-17.816-25.976-22.386
				c10.235,6.971,18.553,16.93,22.646,30.554c0.016,0.05-9.302-24.654-36.091-31.943c-28.152-7.658-60.037-2.771-85.678,13.976
				C140.12,55.944,121.884,73.87,111.222,95.62c3.164-12.185,9.565-23.525,17.783-33.567
				c-11.209,10.427-20.725,22.562-27.563,35.768c-17.799,34.329-7.958,75.067,28.007,92.767
				c31.842,15.674,72.748,7.506,103.145-7.824c12.74,4.811,26.796,6.736,40.139,10.033l-15.05-30.102
				C284.701,134.308,307.463,91.946,282.776,54.287 M234.89,170.637c-4.251-1.641-4.862-2.469-9.067-0.561
				c-8.046,3.632-16.387,6.619-24.939,8.778c-31.783,7.958-71.689,0.175-85.957-33.048c-13.532-31.475,8.218-66.054,32.228-85.209
				c21.657-17.298,50.629-27.023,78.49-24.454c16.167,1.498,31.303,8.67,40.165,22.713c20.934,30.754,3.221,75.142-22.839,96.825
				c4.841,7.943,10.687,15.424,14.62,23.75C250.022,176.494,242.456,173.557,234.89,170.637"/>
			<path fill="#988B7E" d="M507.926,214.814c0.419-0.912,0.979-1.699,1.683-2.336c0.694-0.643,1.515-1.137,2.436-1.488
				c0.92-0.352,1.892-0.527,2.886-0.527c1.015,0,1.968,0.176,2.896,0.527c0.93,0.352,1.74,0.846,2.436,1.488
				c0.703,0.637,1.255,1.424,1.682,2.336c0.419,0.912,0.629,1.934,0.629,3.055c0,1.139-0.21,2.16-0.629,3.07
				c-0.427,0.912-0.979,1.709-1.682,2.336c-0.695,0.662-1.506,1.154-2.436,1.498c-0.929,0.344-1.882,0.518-2.896,0.518
				c-0.994,0-1.966-0.174-2.886-0.518c-0.921-0.344-1.741-0.836-2.436-1.498c-0.703-0.627-1.264-1.424-1.683-2.336
				c-0.419-0.91-0.636-1.932-0.636-3.07C507.291,216.748,507.507,215.727,507.926,214.814 M509.767,220.213
				c0.285,0.719,0.688,1.322,1.198,1.85c0.493,0.525,1.087,0.936,1.773,1.229c0.686,0.285,1.414,0.436,2.191,0.436
				c0.779,0,1.498-0.15,2.178-0.436c0.686-0.293,1.28-0.703,1.781-1.229c0.503-0.527,0.913-1.131,1.205-1.85
				c0.301-0.713,0.444-1.49,0.444-2.344c0-0.846-0.144-1.623-0.444-2.326c-0.292-0.713-0.702-1.322-1.205-1.834
				c-0.501-0.527-1.096-0.928-1.781-1.23c-0.68-0.283-1.398-0.426-2.178-0.426c-0.777,0-1.506,0.143-2.191,0.426
				c-0.687,0.303-1.28,0.703-1.773,1.23c-0.511,0.512-0.913,1.121-1.198,1.834c-0.292,0.703-0.435,1.48-0.435,2.326
				C509.333,218.723,509.475,219.5,509.767,220.213 M515.107,213.693c1.055,0,1.857,0.184,2.428,0.553
				c0.552,0.385,0.836,1.012,0.836,1.908c0,0.393-0.051,0.719-0.167,0.994c-0.117,0.27-0.268,0.496-0.47,0.662
				c-0.199,0.168-0.417,0.311-0.685,0.393c-0.269,0.092-0.553,0.168-0.854,0.193l2.217,3.623h-1.723l-2.034-3.547h-1.021v3.547
				h-1.656v-8.326H515.107z M515.107,217.184c0.46,0,0.854-0.076,1.163-0.201c0.293-0.143,0.452-0.461,0.452-0.963
				c0-0.227-0.051-0.41-0.159-0.543c-0.1-0.127-0.242-0.227-0.401-0.311c-0.168-0.076-0.352-0.125-0.562-0.143
				c-0.208-0.033-0.401-0.041-0.594-0.041h-1.372v2.201H515.107z"/>
		</g>
	</g>
</g>
</svg>
